<svg width="178" height="33" viewBox="0 0 178 33" fill="none" xmlns="http://www.w3.org/2000/svg">
<path d="M28.472 27.248C28.472 28.24 28.296 28.976 27.944 29.456C27.592 29.936 27.032 30.4 26.264 30.848C25.816 31.104 25.256 31.36 24.584 31.616C23.912 31.84 23.176 32.032 22.376 32.192C21.576 32.384 20.728 32.528 19.832 32.624C18.968 32.72 18.104 32.768 17.24 32.768C14.936 32.768 12.776 32.464 10.76 31.856C8.744 31.216 6.984 30.272 5.48 29.024C4.008 27.744 2.84 26.16 1.976 24.272C1.112 22.384 0.68 20.192 0.68 17.696C0.68 15.072 1.144 12.784 2.072 10.832C3.032 8.88 4.28 7.264 5.816 5.984C7.384 4.672 9.16 3.696 11.144 3.056C13.16 2.416 15.224 2.096 17.336 2.096C20.376 2.096 22.776 2.592 24.536 3.584C26.328 4.544 27.224 5.808 27.224 7.376C27.224 8.208 27.016 8.928 26.6 9.536C26.184 10.144 25.704 10.624 25.16 10.976C24.36 10.496 23.352 10.032 22.136 9.584C20.952 9.104 19.608 8.864 18.104 8.864C15.416 8.864 13.272 9.632 11.672 11.168C10.104 12.704 9.32 14.832 9.32 17.552C9.32 19.024 9.528 20.304 9.944 21.392C10.392 22.448 10.984 23.328 11.72 24.032C12.456 24.704 13.304 25.216 14.264 25.568C15.224 25.888 16.248 26.048 17.336 26.048C18.04 26.048 18.664 25.984 19.208 25.856C19.752 25.728 20.168 25.584 20.456 25.424V20.912H15.32C15.128 20.56 14.936 20.096 14.744 19.52C14.584 18.944 14.504 18.336 14.504 17.696C14.504 16.544 14.76 15.712 15.272 15.2C15.816 14.688 16.504 14.432 17.336 14.432H25.448C26.408 14.432 27.144 14.704 27.656 15.248C28.2 15.76 28.472 16.496 28.472 17.456V27.248ZM41.531 31.952C41.211 32.048 40.699 32.144 39.995 32.24C39.323 32.336 38.619 32.384 37.883 32.384C37.179 32.384 36.539 32.336 35.963 32.24C35.419 32.144 34.955 31.952 34.571 31.664C34.187 31.376 33.883 30.992 33.659 30.512C33.467 30 33.371 29.344 33.371 28.544V14.144C33.371 13.408 33.499 12.784 33.755 12.272C34.043 11.728 34.443 11.248 34.955 10.832C35.467 10.416 36.091 10.048 36.827 9.728C37.595 9.376 38.411 9.072 39.275 8.816C40.139 8.56 41.035 8.368 41.963 8.24C42.891 8.08 43.819 8 44.747 8C46.283 8 47.499 8.304 48.395 8.912C49.291 9.488 49.739 10.448 49.739 11.792C49.739 12.24 49.675 12.688 49.547 13.136C49.419 13.552 49.259 13.936 49.067 14.288C48.395 14.288 47.707 14.32 47.003 14.384C46.299 14.448 45.611 14.544 44.939 14.672C44.267 14.8 43.627 14.944 43.019 15.104C42.443 15.232 41.947 15.392 41.531 15.584V31.952ZM62.3863 26.816C62.9303 26.816 63.5223 26.768 64.1623 26.672C64.8343 26.544 65.3303 26.384 65.6503 26.192V22.352L62.1943 22.64C61.2983 22.704 60.5623 22.896 59.9863 23.216C59.4103 23.536 59.1223 24.016 59.1223 24.656C59.1223 25.296 59.3623 25.824 59.8423 26.24C60.3543 26.624 61.2023 26.816 62.3863 26.816ZM62.0023 7.952C63.7303 7.952 65.2983 8.128 66.7063 8.48C68.1463 8.832 69.3623 9.376 70.3543 10.112C71.3783 10.816 72.1623 11.728 72.7063 12.848C73.2503 13.936 73.5223 15.232 73.5223 16.736V27.488C73.5223 28.32 73.2823 29.008 72.8023 29.552C72.3543 30.064 71.8103 30.512 71.1703 30.896C69.0903 32.144 66.1623 32.768 62.3863 32.768C60.6903 32.768 59.1543 32.608 57.7783 32.288C56.4343 31.968 55.2663 31.488 54.2743 30.848C53.3143 30.208 52.5623 29.392 52.0183 28.4C51.5063 27.408 51.2503 26.256 51.2503 24.944C51.2503 22.736 51.9063 21.04 53.2183 19.856C54.5303 18.672 56.5623 17.936 59.3143 17.648L65.6023 16.976V16.64C65.6023 15.712 65.1863 15.056 64.3543 14.672C63.5543 14.256 62.3863 14.048 60.8503 14.048C59.6343 14.048 58.4503 14.176 57.2983 14.432C56.1463 14.688 55.1063 15.008 54.1783 15.392C53.7623 15.104 53.4103 14.672 53.1223 14.096C52.8343 13.488 52.6903 12.864 52.6903 12.224C52.6903 11.392 52.8823 10.736 53.2663 10.256C53.6823 9.744 54.3063 9.312 55.1383 8.96C56.0663 8.608 57.1543 8.352 58.4023 8.192C59.6823 8.032 60.8823 7.952 62.0023 7.952ZM78.6076 0.751999C78.9276 0.655998 79.4396 0.559999 80.1436 0.464C80.8476 0.335999 81.5676 0.271999 82.3036 0.271999C83.0076 0.271999 83.6316 0.319999 84.1756 0.415998C84.7516 0.511998 85.2316 0.703999 85.6156 0.991999C85.9996 1.28 86.2876 1.68 86.4796 2.192C86.6716 2.672 86.7676 3.312 86.7676 4.112V8.816C87.5676 8.496 88.3196 8.272 89.0236 8.144C89.7596 8.016 90.5596 7.952 91.4236 7.952C92.9596 7.952 94.4156 8.224 95.7916 8.768C97.1676 9.312 98.3836 10.112 99.4396 11.168C100.496 12.192 101.328 13.472 101.936 15.008C102.544 16.544 102.848 18.32 102.848 20.336C102.848 22.416 102.528 24.24 101.888 25.808C101.28 27.344 100.416 28.624 99.2956 29.648C98.1756 30.672 96.7996 31.456 95.1676 32C93.5676 32.512 91.7916 32.768 89.8396 32.768C87.7276 32.768 85.9356 32.512 84.4636 32C82.9916 31.52 81.7436 30.912 80.7196 30.176C79.3116 29.184 78.6076 27.904 78.6076 26.336V0.751999ZM89.8396 26.336C91.3116 26.336 92.4476 25.84 93.2476 24.848C94.0796 23.824 94.4956 22.32 94.4956 20.336C94.4956 18.32 94.0796 16.816 93.2476 15.824C92.4156 14.832 91.2956 14.336 89.8876 14.336C89.2476 14.336 88.6876 14.4 88.2076 14.528C87.7596 14.656 87.2636 14.848 86.7196 15.104V25.568C87.0716 25.792 87.4876 25.984 87.9676 26.144C88.4796 26.272 89.1036 26.336 89.8396 26.336ZM106.92 0.751999C107.24 0.655998 107.752 0.559999 108.456 0.464C109.16 0.335999 109.88 0.271999 110.616 0.271999C111.32 0.271999 111.944 0.319999 112.488 0.415998C113.064 0.511998 113.544 0.703999 113.928 0.991999C114.312 1.28 114.6 1.68 114.792 2.192C114.984 2.672 115.08 3.312 115.08 4.112V8.816C115.88 8.496 116.632 8.272 117.336 8.144C118.072 8.016 118.872 7.952 119.736 7.952C121.272 7.952 122.728 8.224 124.104 8.768C125.48 9.312 126.696 10.112 127.752 11.168C128.808 12.192 129.64 13.472 130.248 15.008C130.856 16.544 131.16 18.32 131.16 20.336C131.16 22.416 130.84 24.24 130.2 25.808C129.592 27.344 128.728 28.624 127.608 29.648C126.488 30.672 125.112 31.456 123.48 32C121.88 32.512 120.104 32.768 118.152 32.768C116.04 32.768 114.248 32.512 112.776 32C111.304 31.52 110.056 30.912 109.032 30.176C107.624 29.184 106.92 27.904 106.92 26.336V0.751999ZM118.152 26.336C119.624 26.336 120.76 25.84 121.56 24.848C122.392 23.824 122.808 22.32 122.808 20.336C122.808 18.32 122.392 16.816 121.56 15.824C120.728 14.832 119.608 14.336 118.2 14.336C117.56 14.336 117 14.4 116.52 14.528C116.072 14.656 115.576 14.848 115.032 15.104V25.568C115.384 25.792 115.8 25.984 116.28 26.144C116.792 26.272 117.416 26.336 118.152 26.336ZM147.473 32.768C145.585 32.768 143.825 32.512 142.193 32C140.593 31.456 139.185 30.656 137.969 29.6C136.785 28.544 135.841 27.216 135.137 25.616C134.465 24.016 134.129 22.144 134.129 20C134.129 17.888 134.465 16.08 135.137 14.576C135.841 13.04 136.753 11.792 137.873 10.832C138.993 9.84 140.273 9.12 141.713 8.672C143.153 8.192 144.625 7.952 146.129 7.952C147.825 7.952 149.361 8.208 150.737 8.72C152.145 9.232 153.345 9.936 154.337 10.832C155.361 11.728 156.145 12.8 156.689 14.048C157.265 15.296 157.553 16.656 157.553 18.128C157.553 19.216 157.249 20.048 156.641 20.624C156.033 21.2 155.185 21.568 154.097 21.728L142.241 23.504C142.593 24.56 143.313 25.36 144.401 25.904C145.489 26.416 146.737 26.672 148.145 26.672C149.457 26.672 150.689 26.512 151.841 26.192C153.025 25.84 153.985 25.44 154.721 24.992C155.233 25.312 155.665 25.76 156.017 26.336C156.369 26.912 156.545 27.52 156.545 28.16C156.545 29.6 155.873 30.672 154.529 31.376C153.505 31.92 152.353 32.288 151.073 32.48C149.793 32.672 148.593 32.768 147.473 32.768ZM146.129 13.904C145.361 13.904 144.689 14.032 144.113 14.288C143.569 14.544 143.121 14.88 142.769 15.296C142.417 15.68 142.145 16.128 141.953 16.64C141.793 17.12 141.697 17.616 141.665 18.128L149.873 16.784C149.777 16.144 149.425 15.504 148.817 14.864C148.209 14.224 147.313 13.904 146.129 13.904ZM169.64 31.952C169.32 32.048 168.808 32.144 168.104 32.24C167.432 32.336 166.728 32.384 165.992 32.384C165.288 32.384 164.648 32.336 164.072 32.24C163.528 32.144 163.064 31.952 162.68 31.664C162.296 31.376 161.992 30.992 161.768 30.512C161.576 30 161.48 29.344 161.48 28.544V14.144C161.48 13.408 161.608 12.784 161.864 12.272C162.152 11.728 162.552 11.248 163.064 10.832C163.576 10.416 164.2 10.048 164.936 9.728C165.704 9.376 166.52 9.072 167.384 8.816C168.248 8.56 169.144 8.368 170.072 8.24C171 8.08 171.928 8 172.856 8C174.392 8 175.608 8.304 176.504 8.912C177.4 9.488 177.848 10.448 177.848 11.792C177.848 12.24 177.784 12.688 177.656 13.136C177.528 13.552 177.368 13.936 177.176 14.288C176.504 14.288 175.816 14.32 175.112 14.384C174.408 14.448 173.72 14.544 173.048 14.672C172.376 14.8 171.736 14.944 171.128 15.104C170.552 15.232 170.056 15.392 169.64 15.584V31.952Z" fill="#0CA201"/>
</svg>
