<svg width="20" height="21" viewBox="0 0 20 21" fill="none" xmlns="http://www.w3.org/2000/svg">
<path d="M17.2984 8.066H2.70235C2.40702 8.06662 2.11563 8.13384 1.84986 8.26265C1.5841 8.39146 1.35081 8.57856 1.16735 8.81C0.985119 9.04116 0.857758 9.31068 0.794877 9.59824C0.731995 9.8858 0.735235 10.1839 0.804352 10.47L2.36935 16.878C2.59553 17.7038 3.08758 18.432 3.76935 18.95C4.45135 19.469 5.28635 19.75 6.14535 19.75H13.8534C14.7124 19.75 15.5474 19.469 16.2294 18.95C16.9111 18.432 17.4032 17.7038 17.6294 16.878L19.1944 10.471C19.2997 10.0391 19.2535 9.58403 19.0634 9.18209C18.8734 8.78015 18.551 8.45568 18.1504 8.263C17.8842 8.13385 17.5922 8.0665 17.2964 8.066M6.08735 11.96V15.855M10.0004 11.96V15.855M13.9134 11.96V15.855M16.8484 8.066C16.848 7.17005 16.6706 6.28299 16.3264 5.45582C15.9821 4.62864 15.4778 3.87765 14.8424 3.246C13.5556 1.96687 11.8147 1.24924 10.0004 1.25C8.18598 1.24924 6.44512 1.96687 5.15835 3.246C4.52312 3.87773 4.01897 4.62876 3.67489 5.45593C3.3308 6.2831 3.15356 7.17012 3.15335 8.066" stroke="black" stroke-width="1.5" stroke-linecap="round" stroke-linejoin="round"/>
</svg>
