<svg width="20" height="15" viewBox="0 0 20 15" fill="none" xmlns="http://www.w3.org/2000/svg">
<path d="M17 2.5C17 1.96957 16.7893 1.46086 16.4142 1.08579C16.0391 0.710714 15.5304 0.5 15 0.5H12V2.5H15V5.15L11.5 9.5H8V4.5H4C1.79 4.5 0 6.29 0 8.5V11.5H2C2 13.16 3.34 14.5 5 14.5C6.66 14.5 8 13.16 8 11.5H12.5L17 5.85V2.5ZM5 12.5C4.45 12.5 4 12.05 4 11.5H6C6 12.05 5.55 12.5 5 12.5ZM6 9.5H2V8.5C2 7.4 2.9 6.5 4 6.5H6V9.5ZM17 8.5C15.34 8.5 14 9.84 14 11.5C14 13.16 15.34 14.5 17 14.5C18.66 14.5 20 13.16 20 11.5C20 9.84 18.66 8.5 17 8.5ZM17 12.5C16.45 12.5 16 12.05 16 11.5C16 10.95 16.45 10.5 17 10.5C17.55 10.5 18 10.95 18 11.5C18 12.05 17.55 12.5 17 12.5ZM8 3.5H3V1.5H8V3.5Z" fill="black"/>
</svg>
